<mxfile host="65bd71144e">
    <diagram id="-yKd4-HMBDkQZtuK9eO9" name="Page-1">
        <mxGraphModel dx="1156" dy="533" grid="1" gridSize="10" guides="1" tooltips="1" connect="1" arrows="1" fold="1" page="1" pageScale="1" pageWidth="850" pageHeight="1100" math="0" shadow="0">
            <root>
                <mxCell id="0"/>
                <mxCell id="1" parent="0"/>
                <mxCell id="2" value="" style="rounded=0;whiteSpace=wrap;html=1;fillColor=#f5f5f5;fontColor=#333333;strokeColor=#666666;" parent="1" vertex="1">
                    <mxGeometry x="10" y="181.25" width="833" height="128.75" as="geometry"/>
                </mxCell>
                <mxCell id="6" value="&lt;font style=&quot;font-size: 18px;&quot;&gt;DECSAI&lt;/font&gt;" style="whiteSpace=wrap;html=1;aspect=fixed;fillColor=#f5f5f5;fontColor=#333333;strokeColor=#666666;fontSize=18;" parent="1" vertex="1">
                    <mxGeometry x="40" y="208.44" width="74.37" height="74.37" as="geometry"/>
                </mxCell>
                <mxCell id="7" value="&lt;font style=&quot;font-size: 18px;&quot;&gt;UGR&lt;/font&gt;" style="whiteSpace=wrap;html=1;aspect=fixed;fillColor=#f5f5f5;fontColor=#333333;strokeColor=#666666;fontSize=18;" parent="1" vertex="1">
                    <mxGeometry x="386.5" y="205.63" width="80" height="80" as="geometry"/>
                </mxCell>
                <mxCell id="8" value="&lt;font style=&quot;font-size: 18px;&quot;&gt;Facultad de Ciencias&lt;/font&gt;" style="whiteSpace=wrap;html=1;aspect=fixed;fillColor=#f5f5f5;fontColor=#333333;strokeColor=#666666;" parent="1" vertex="1">
                    <mxGeometry x="730" y="203.44" width="84.37" height="84.37" as="geometry"/>
                </mxCell>
                <mxCell id="9" value="" style="rounded=0;whiteSpace=wrap;html=1;fillColor=#f5f5f5;fontColor=#333333;strokeColor=#666666;movable=1;resizable=1;rotatable=1;deletable=1;editable=1;connectable=1;" parent="1" vertex="1">
                    <mxGeometry x="10.01" y="310" width="833" height="370" as="geometry"/>
                </mxCell>
                <mxCell id="23" value="&lt;font color=&quot;#000000&quot;&gt;Validated: ?/Total&lt;br&gt;&lt;div style=&quot;text-align: left;&quot;&gt;&lt;span style=&quot;background-color: initial;&quot;&gt;Ignored: ?/Total&lt;/span&gt;&lt;/div&gt;&lt;/font&gt;" style="text;html=1;strokeColor=none;fillColor=none;align=center;verticalAlign=middle;whiteSpace=wrap;rounded=0;" parent="1" vertex="1">
                    <mxGeometry x="30" y="330" width="100" height="30" as="geometry"/>
                </mxCell>
                <mxCell id="25" value="Imagen a Validar" style="rounded=0;whiteSpace=wrap;html=1;fontColor=#333333;fillColor=#f5f5f5;strokeColor=#666666;glass=0;shadow=1;" parent="1" vertex="1">
                    <mxGeometry x="30" y="370" width="380" height="260" as="geometry"/>
                </mxCell>
                <mxCell id="26" value="&lt;font style=&quot;font-size: 18px;&quot;&gt;1st Label&lt;/font&gt;" style="text;html=1;strokeColor=none;fillColor=none;align=left;verticalAlign=middle;whiteSpace=wrap;rounded=0;shadow=1;glass=0;sketch=0;fontColor=#000000;fontStyle=1" parent="1" vertex="1">
                    <mxGeometry x="460" y="370" width="153.5" height="30" as="geometry"/>
                </mxCell>
                <mxCell id="27" value="&lt;font style=&quot;font-size: 15px;&quot;&gt;&amp;nbsp;Low Detail&lt;/font&gt;" style="rounded=1;whiteSpace=wrap;html=1;shadow=0;glass=0;sketch=0;fontSize=18;fontColor=#333333;fillColor=#f5f5f5;strokeColor=#666666;align=left;" parent="1" vertex="1">
                    <mxGeometry x="467" y="400" width="153" height="30" as="geometry"/>
                </mxCell>
                <mxCell id="28" value="&lt;font style=&quot;font-size: 15px;&quot;&gt;&amp;nbsp;High Detail&lt;/font&gt;" style="rounded=1;whiteSpace=wrap;html=1;shadow=0;glass=0;sketch=0;fontSize=18;fontColor=#333333;fillColor=#f5f5f5;strokeColor=#666666;align=left;" parent="1" vertex="1">
                    <mxGeometry x="467" y="440" width="153" height="30" as="geometry"/>
                </mxCell>
                <mxCell id="33" value="&lt;span style=&quot;font-size: 18px;&quot;&gt;2nd Label&lt;/span&gt;" style="text;html=1;strokeColor=none;fillColor=none;align=left;verticalAlign=middle;whiteSpace=wrap;rounded=0;shadow=1;glass=0;sketch=0;fontColor=#000000;fontStyle=1" parent="1" vertex="1">
                    <mxGeometry x="654.37" y="370" width="153.5" height="30" as="geometry"/>
                </mxCell>
                <mxCell id="34" value="&lt;font style=&quot;font-size: 15px;&quot;&gt;&amp;nbsp;Low Detail&lt;/font&gt;" style="rounded=1;whiteSpace=wrap;html=1;shadow=0;glass=0;sketch=0;fontSize=18;fontColor=#333333;fillColor=#f5f5f5;strokeColor=#666666;align=left;" parent="1" vertex="1">
                    <mxGeometry x="661.37" y="400" width="153" height="30" as="geometry"/>
                </mxCell>
                <mxCell id="35" value="&lt;font style=&quot;font-size: 15px;&quot;&gt;&amp;nbsp;High Detail&lt;/font&gt;" style="rounded=1;whiteSpace=wrap;html=1;shadow=0;glass=0;sketch=0;fontSize=18;fontColor=#333333;fillColor=#f5f5f5;strokeColor=#666666;align=left;" parent="1" vertex="1">
                    <mxGeometry x="661.37" y="440" width="153" height="30" as="geometry"/>
                </mxCell>
                <mxCell id="36" value="&lt;font style=&quot;font-size: 18px;&quot;&gt;3rd Label&lt;/font&gt;" style="text;html=1;strokeColor=none;fillColor=none;align=left;verticalAlign=middle;whiteSpace=wrap;rounded=0;shadow=1;glass=0;sketch=0;fontColor=#000000;fontStyle=1" parent="1" vertex="1">
                    <mxGeometry x="467" y="490" width="153.5" height="30" as="geometry"/>
                </mxCell>
                <mxCell id="37" value="&lt;font style=&quot;font-size: 15px;&quot;&gt;&amp;nbsp;Low Detail&lt;/font&gt;" style="rounded=1;whiteSpace=wrap;html=1;shadow=0;glass=0;sketch=0;fontSize=18;fontColor=#333333;fillColor=#f5f5f5;strokeColor=#666666;align=left;" parent="1" vertex="1">
                    <mxGeometry x="474" y="520" width="153" height="30" as="geometry"/>
                </mxCell>
                <mxCell id="38" value="&lt;font style=&quot;font-size: 15px;&quot;&gt;&amp;nbsp;High Detail&lt;/font&gt;" style="rounded=1;whiteSpace=wrap;html=1;shadow=0;glass=0;sketch=0;fontSize=18;fontColor=#333333;fillColor=#f5f5f5;strokeColor=#666666;align=left;" parent="1" vertex="1">
                    <mxGeometry x="474" y="560" width="153" height="30" as="geometry"/>
                </mxCell>
                <mxCell id="39" value="&lt;font style=&quot;font-size: 18px;&quot;&gt;4th Label&lt;/font&gt;" style="text;html=1;strokeColor=none;fillColor=none;align=left;verticalAlign=middle;whiteSpace=wrap;rounded=0;shadow=1;glass=0;sketch=0;fontColor=#000000;fontStyle=1" parent="1" vertex="1">
                    <mxGeometry x="661.37" y="490" width="153.5" height="30" as="geometry"/>
                </mxCell>
                <mxCell id="40" value="&lt;font style=&quot;font-size: 15px;&quot;&gt;&amp;nbsp;Low Detail&lt;/font&gt;" style="rounded=1;whiteSpace=wrap;html=1;shadow=0;glass=0;sketch=0;fontSize=18;fontColor=#333333;fillColor=#f5f5f5;strokeColor=#666666;align=left;" parent="1" vertex="1">
                    <mxGeometry x="668.37" y="520" width="153" height="30" as="geometry"/>
                </mxCell>
                <mxCell id="41" value="&lt;font style=&quot;font-size: 15px;&quot;&gt;&amp;nbsp;High Detail&lt;/font&gt;" style="rounded=1;whiteSpace=wrap;html=1;shadow=0;glass=0;sketch=0;fontSize=18;fontColor=#333333;fillColor=#f5f5f5;strokeColor=#666666;align=left;" parent="1" vertex="1">
                    <mxGeometry x="668.37" y="560" width="153" height="30" as="geometry"/>
                </mxCell>
                <mxCell id="42" value="Submit" style="rounded=1;whiteSpace=wrap;html=1;shadow=1;glass=0;sketch=0;fontSize=15;fillColor=#f5f5f5;strokeColor=#009900;fontColor=#00994D;" parent="1" vertex="1">
                    <mxGeometry x="745.37" y="620" width="76" height="30" as="geometry"/>
                </mxCell>
                <mxCell id="43" value="Ignore" style="rounded=1;whiteSpace=wrap;html=1;shadow=1;glass=0;sketch=0;fontSize=15;fontColor=#FF0000;fillColor=#f5f5f5;strokeColor=#990000;" parent="1" vertex="1">
                    <mxGeometry x="640" y="620" width="76" height="30" as="geometry"/>
                </mxCell>
                <mxCell id="44" value="&lt;font color=&quot;#000000&quot;&gt;Hello, username&lt;br&gt;&lt;div style=&quot;&quot;&gt;&lt;span style=&quot;background-color: initial;&quot;&gt;&lt;u&gt;logout&lt;/u&gt;&lt;/span&gt;&lt;/div&gt;&lt;/font&gt;" style="text;html=1;strokeColor=none;fillColor=none;align=right;verticalAlign=middle;whiteSpace=wrap;rounded=0;" vertex="1" parent="1">
                    <mxGeometry x="721.37" y="330" width="100" height="30" as="geometry"/>
                </mxCell>
            </root>
        </mxGraphModel>
    </diagram>
</mxfile>